<svg width="200" height="99" viewBox="0 0 200 99" fill="none" xmlns="http://www.w3.org/2000/svg">
<path d="M65.9148 43.4896H49.7991L49.8952 42.9517C50.8476 37.6524 53.693 34.8513 58.1231 34.8513C62.2371 34.8513 65.1225 37.8835 65.8428 42.9676L65.9148 43.4896ZM57.7829 24.9899C44.5806 24.9899 35 34.4689 35 47.5298C35 60.5907 44.6126 69.9859 58.3792 69.9859C63.9379 69.9859 68.1559 68.8822 72.0617 66.4079C76.0837 63.8499 78.9451 60.3835 79.9974 56.8134H65.2225C63.9259 58.9252 61.7448 60.0368 58.8915 60.0368C54.0411 60.0368 50.9317 57.1203 49.8952 51.6018L49.7951 51.0599H80.9982C81.0783 42.4098 78.4368 35.198 73.5345 30.7235C69.3485 26.9184 64.0459 24.9859 57.7829 24.9859" fill="currentColor"/>
<path d="M115.004 88.9859L142.394 26.9859H158L130.609 88.9859H115H115.004Z" fill="currentColor"/>
<path d="M16.1516 69.9819H30.96V22.9234H47V9.9859H0V22.9234H16.1516V69.9859V69.9819Z" fill="currentColor"/>
<path d="M85 69.9859H100V9.9859H85V69.9859Z" fill="currentColor"/>
<path d="M107 69.9859H122V9.9859H107V69.9859Z" fill="currentColor"/>
</svg>
