<svg width="200" height="99" viewBox="0 0 200 99" fill="none" xmlns="http://www.w3.org/2000/svg">
<path d="M65.9148 43.4895H49.7991L49.8952 42.9516C50.8476 37.6523 53.693 34.8512 58.1231 34.8512C62.2371 34.8512 65.1225 37.8834 65.8428 42.9675L65.9148 43.4895ZM57.7829 24.9898C44.5806 24.9898 35 34.4688 35 47.5297C35 60.5906 44.6126 69.9858 58.3792 69.9858C63.9379 69.9858 68.1559 68.8821 72.0617 66.4078C76.0837 63.8498 78.9451 60.3834 79.9974 56.8133H65.2225C63.9259 58.9251 61.7448 60.0367 58.8915 60.0367C54.0411 60.0367 50.9317 57.1202 49.8952 51.6017L49.7951 51.0598H80.9982C81.0783 42.4097 78.4368 35.1979 73.5345 30.7234C69.3485 26.9183 64.0459 24.9858 57.7829 24.9858" fill="currentColor"/>
<path d="M115.004 88.9858L142.394 26.9858H158L130.609 88.9858H115H115.004Z" fill="currentColor"/>
<path d="M16.1516 69.9818H30.96V22.9233H47V9.98584H0V22.9233H16.1516V69.9858V69.9818Z" fill="currentColor"/>
<path d="M85 69.9858H100V9.98584H85V69.9858Z" fill="currentColor"/>
<path d="M107 69.9858H122V9.98584H107V69.9858Z" fill="currentColor"/>
</svg>
