<svg width="60" height="60" viewBox="0 0 60 60" fill="none" xmlns="http://www.w3.org/2000/svg">
<circle cx="30" cy="30" r="30" fill="#175ABC"/>
<path d="M22.6875 32.0625H32.0625V30.1875H22.6875V32.0625ZM22.6875 28.3125H37.0625V26.4375H22.6875V28.3125ZM22.6875 24.5625H37.0625V22.6875H22.6875V24.5625ZM18 41.1731V20.2597C18 19.6282 18.2188 19.0938 18.6562 18.6562C19.0938 18.2188 19.6282 18 20.2597 18H39.4903C40.1218 18 40.6562 18.2188 41.0938 18.6562C41.5312 19.0938 41.75 19.6282 41.75 20.2597V34.4903C41.75 35.1218 41.5312 35.6562 41.0938 36.0938C40.6562 36.5312 40.1218 36.75 39.4903 36.75H22.4231L18 41.1731ZM21.625 34.875H39.4903C39.5866 34.875 39.6747 34.8349 39.7547 34.7547C39.8349 34.6747 39.875 34.5866 39.875 34.4903V20.2597C39.875 20.1634 39.8349 20.0753 39.7547 19.9953C39.6747 19.9151 39.5866 19.875 39.4903 19.875H20.2597C20.1634 19.875 20.0753 19.9151 19.9953 19.9953C19.9151 20.0753 19.875 20.1634 19.875 20.2597V36.6059L21.625 34.875Z" fill="white"/>
</svg>
