<svg width="60" height="60" viewBox="0 0 60 60" fill="none" xmlns="http://www.w3.org/2000/svg">
<circle cx="30" cy="30" r="30" fill="#8EEB00"/>
<path d="M42.1045 37.8899L38.8113 41.0702L38.8071 41.0737C38.1487 41.6945 37.3253 42.1162 36.4336 42.2893L36.435 42.2935C36.4243 42.2957 36.4144 42.2935 36.4044 42.2964C36.3616 42.3049 36.3202 42.3204 36.276 42.3275L36.2732 42.3091C35.9923 42.3564 35.7099 42.3932 35.4297 42.3932C32.0688 42.3932 28.8669 39.2369 28.7186 39.0899L24.6562 35.1845L24.6398 35.1669L20.5823 31.2389C20.4233 31.0919 16.4849 27.373 17.2699 23.8041L17.2884 23.8076C17.4615 22.9361 17.8965 22.137 18.5361 21.515L18.5389 21.5121L21.8335 18.3333L28.0627 24.3426L24.5984 27.6706L32.4289 35.2241L35.8917 31.8813L42.1045 37.8899ZM40.0583 37.8899L35.8925 33.8601L32.4296 37.2015L22.5465 27.6678L26.0108 24.3405L21.8335 20.3107L19.5663 22.4994C19.0965 22.953 18.7859 23.5441 18.6801 24.1857L18.6773 24.185C18.1497 26.9737 21.5648 30.2106 21.5997 30.2431L25.6664 34.181L25.6807 34.193L29.7531 38.1083C29.7959 38.1514 33.1768 41.4907 36.0821 40.9324C36.7244 40.8202 37.3191 40.5228 37.7918 40.0772L40.0583 37.8899Z" fill="white"/>
</svg>
