<svg width="262" height="9" viewBox="0 0 262 9" fill="none" xmlns="http://www.w3.org/2000/svg">
<path d="M261.182 8.80575C259.285 8.87073 257.473 9.0723 255.664 8.97291C237.175 7.94772 218.705 6.538 200.221 5.90445C178.274 5.1519 156.325 4.91116 134.396 4.73159C117.325 4.59387 100.263 4.73963 83.2404 5.01376C62.8727 5.34317 42.5581 5.98829 22.1974 6.40837C16.8074 6.5215 11.3472 6.4325 5.94044 6.18349C0.966159 5.95536 -1.47885 3.6693 1.04961 1.86428C1.6524 1.42967 3.00434 1.0734 4.04237 1.07535C17.3293 1.14478 30.64 1.43215 43.8989 1.37377C58.1734 1.31022 72.3966 0.888893 86.6544 0.698071C101.323 0.503 115.976 0.168645 130.674 0.306224C153.138 0.517629 175.632 0.79676 198.113 1.59316C216.448 2.2436 234.779 3.69479 253.104 4.8024C257.245 5.0505 260.348 5.98324 261.148 8.79808L261.182 8.80575Z" fill="#1E1EC8"/>
</svg>
