<svg width="262" height="9" viewBox="0 0 262 9" fill="none" xmlns="http://www.w3.org/2000/svg">
<path d="M261.263 8.80575C259.366 8.87074 257.554 9.0723 255.745 8.97291C237.256 7.94772 218.786 6.538 200.302 5.90445C178.355 5.1519 156.406 4.91116 134.477 4.73159C117.406 4.59387 100.344 4.73963 83.3214 5.01376C62.9536 5.34317 42.6391 5.98829 22.2783 6.40837C16.8883 6.5215 11.4281 6.4325 6.02137 6.18349C1.04709 5.95536 -1.39792 3.6693 1.13054 1.86428C1.73334 1.42968 3.08527 1.0734 4.1233 1.07535C17.4103 1.14478 30.7209 1.43215 43.9798 1.37377C58.2543 1.31022 72.4776 0.888892 86.7354 0.698071C101.404 0.503 116.057 0.168645 130.755 0.306224C153.218 0.517629 175.713 0.796761 198.194 1.59316C216.529 2.2436 234.86 3.69479 253.185 4.8024C257.326 5.0505 260.429 5.98324 261.229 8.79808L261.263 8.80575Z" fill="#1E1EC8"/>
</svg>
