<svg width="24" height="24" viewBox="0 0 24 24" fill="none" xmlns="http://www.w3.org/2000/svg">
<g clip-path="url(#clip0_2524_2858)">
<path d="M2 6H22V19H2V6Z" fill="white"/>
<path d="M2 10.333H22V18.9997H2V10.333Z" fill="#0B4EA2"/>
<path d="M2 14.667H22V19.0003H2V14.667Z" fill="#EE1C25"/>
<path d="M10.663 9.15234C10.663 9.15234 10.7667 10.1653 10.7667 12.1911C10.7519 14.2603 9.16482 15.3075 8 15.8582C6.83519 15.3075 5.24815 14.2603 5.23334 12.1911C5.23334 10.1653 5.33704 9.15234 5.33704 9.15234H10.663Z" fill="#EE1C25"/>
<path d="M7.76479 14.6663V12.1331C6.88516 12.1331 6.63516 12.209 6.37219 12.2866C6.39693 12.0278 6.39693 11.7672 6.37219 11.5084C6.63516 11.586 6.88516 11.6619 7.76479 11.6619V10.9577C7.48701 10.9577 7.10367 10.9685 6.66293 11.1148C6.68778 10.8554 6.68778 10.5942 6.66293 10.3348C7.10367 10.4792 7.48701 10.4901 7.76479 10.4901C7.76479 10.286 7.69997 9.84729 7.61849 9.48438C7.87231 9.50641 8.12763 9.50641 8.38145 9.48438C8.29997 9.84729 8.23516 10.286 8.23516 10.4901C8.51293 10.4901 8.89627 10.4792 9.33701 10.3348C9.31216 10.5942 9.31216 10.8554 9.33701 11.1148C8.89627 10.9685 8.51293 10.9577 8.23516 10.9577V11.6619C9.11479 11.6619 9.36479 11.586 9.62775 11.5084C9.60301 11.7672 9.60301 12.0278 9.62775 12.2866C9.36479 12.209 9.11479 12.1331 8.23516 12.1331V14.6663H7.76479Z" fill="white"/>
<mask id="mask0_2524_2858" style="mask-type:luminance" maskUnits="userSpaceOnUse" x="5" y="9" width="6" height="7">
<path d="M10.663 9.15234C10.663 9.15234 10.7667 10.1653 10.7667 12.1911C10.7519 14.2603 9.16482 15.3075 8 15.8582C6.83519 15.3075 5.24815 14.2603 5.23334 12.1911C5.23334 10.1653 5.33704 9.15234 5.33704 9.15234H10.663Z" fill="white"/>
</mask>
<g mask="url(#mask0_2524_2858)">
<path d="M6.5611 16.658C6.41088 16.658 6.26286 16.5979 6.12946 16.4827C5.99607 16.3675 5.88121 16.2006 5.79451 15.9961C5.70782 15.7915 5.65182 15.5553 5.63123 15.3072C5.61065 15.0591 5.62607 14.8063 5.6762 14.5702C5.72632 14.3341 5.8097 14.1215 5.91932 13.9503C6.02895 13.779 6.16161 13.6541 6.30619 13.5861C6.45076 13.518 6.60301 13.5088 6.75016 13.5592C6.89731 13.6096 7.03506 13.7181 7.15184 13.8757C7.25308 13.6441 7.38198 13.4569 7.52886 13.3283C7.67574 13.1996 7.83681 13.1328 7.99999 13.1328C8.16317 13.1328 8.32423 13.1996 8.47112 13.3283C8.618 13.4569 8.74689 13.6441 8.84814 13.8757C8.96492 13.7181 9.10267 13.6096 9.24982 13.5592C9.39697 13.5088 9.54922 13.518 9.69379 13.5861C9.83836 13.6541 9.97103 13.779 10.0807 13.9503C10.1903 14.1215 10.2737 14.3341 10.3238 14.5702C10.3739 14.8063 10.3893 15.0591 10.3687 15.3072C10.3482 15.5553 10.2922 15.7915 10.2055 15.9961C10.1188 16.2006 10.0039 16.3675 9.87051 16.4827C9.73712 16.5979 9.5891 16.658 9.43888 16.658H6.5611Z" fill="#0B4EA2"/>
</g>
<path d="M10.7535 9.05469L10.7625 9.1425L10.663 9.15219C10.7625 9.1425 10.7625 9.14252 10.7625 9.14254V9.14258C10.7625 9.14262 10.7625 9.1427 10.7625 9.14277C10.7625 9.14292 10.7626 9.14312 10.7626 9.14339C10.7626 9.14393 10.7627 9.14474 10.7628 9.14578C10.763 9.14785 10.7633 9.15093 10.7637 9.15498C10.7645 9.16309 10.7656 9.17516 10.7671 9.19118C10.7699 9.22324 10.774 9.27112 10.7789 9.33483C10.7887 9.46225 10.8017 9.65297 10.8147 9.90701C10.8407 10.4151 10.8667 11.1764 10.8667 12.1909V12.1916C10.8515 14.3202 9.21558 15.3917 8.04367 15.9457L8.00003 15.9664L7.95639 15.9457C6.78448 15.3917 5.1486 14.3202 5.13336 12.1916V12.1909C5.13336 11.1764 5.15933 10.4151 5.18534 9.90701C5.19834 9.65297 5.21136 9.46225 5.22114 9.33483C5.22604 9.27112 5.23012 9.22324 5.23299 9.19118C5.23443 9.17516 5.23556 9.16309 5.23633 9.15498C5.23672 9.15093 5.23702 9.14785 5.23722 9.14578C5.23733 9.14474 5.23741 9.14393 5.23746 9.14339C5.23749 9.14312 5.23751 9.14292 5.23753 9.14277C5.23754 9.1427 5.23755 9.14262 5.23755 9.14258V9.14254C5.23755 9.14252 5.23757 9.1425 5.33707 9.15219L5.23755 9.1425L5.24656 9.05469H10.7535ZM5.42865 9.24969C5.42636 9.27669 5.42361 9.30992 5.42058 9.34939C5.41092 9.4752 5.39802 9.66432 5.3851 9.91674C5.35925 10.4216 5.33336 11.1796 5.33336 12.1909C5.34791 14.1751 6.84782 15.1972 8.00003 15.7495C9.15224 15.1972 10.6521 14.1751 10.6667 12.1909C10.6667 11.1796 10.6408 10.4216 10.615 9.91674C10.602 9.66432 10.5891 9.4752 10.5795 9.34939C10.5764 9.30992 10.5737 9.27669 10.5714 9.24969H5.42865Z" fill="white"/>
</g>
<defs>
<clipPath id="clip0_2524_2858">
<rect width="20" height="13" fill="white" transform="translate(2 6)"/>
</clipPath>
</defs>
</svg>
