<svg width="23" height="23" viewBox="0 0 23 23" fill="none" xmlns="http://www.w3.org/2000/svg">
<path d="M15.6132 10.6586C15.3771 10.6586 15.141 10.5682 14.9603 10.3893L13.7854 9.21438C13.4257 8.85472 13.4257 8.27004 13.7854 7.91037C14.145 7.55071 14.7297 7.55071 15.0894 7.91037L16.2643 9.08527C16.6239 9.44494 16.6239 10.0296 16.2643 10.3893C16.0835 10.57 15.8474 10.6586 15.6114 10.6586H15.6132Z" fill="#1E1EC8"/>
<path d="M10.9119 13.0093C10.6758 13.0093 10.4398 12.919 10.259 12.74C9.89934 12.3804 9.89934 11.7957 10.259 11.436L14.9604 6.73459C15.3201 6.37493 15.9048 6.37493 16.2645 6.73459C16.6241 7.09425 16.6241 7.67894 16.2645 8.0386L11.563 12.74C11.3823 12.9208 11.1462 13.0093 10.9101 13.0093H10.9119Z" fill="#1E1EC8"/>
<path d="M11.5 23C5.15886 23 0 17.8411 0 11.5C0 10.9909 0.413152 10.5778 0.922213 10.5778C1.43128 10.5778 1.84443 10.9909 1.84443 11.5C1.84443 16.823 6.17514 21.1556 11.5 21.1556C16.8249 21.1556 21.1556 16.8249 21.1556 11.5C21.1556 6.17514 16.823 1.84443 11.5 1.84443C8.77025 1.85365 6.18436 2.90497 4.22005 4.80473L1.57514 7.44964C1.21548 7.8093 0.630794 7.8093 0.271131 7.44964C-0.0885325 7.08998 -0.0885325 6.50529 0.271131 6.14563L2.92711 3.48966C5.24555 1.24683 8.28517 0.0110666 11.4963 0C17.8411 0 22.9982 5.15886 22.9982 11.5C22.9982 17.8411 17.8393 23 11.4982 23H11.5Z" fill="#1E1EC8"/>
<path d="M6.79856 7.72077H0.922213C0.413152 7.72077 0 7.30762 0 6.79856V0.922213C0 0.413152 0.413152 0 0.922213 0C1.43128 0 1.84443 0.413152 1.84443 0.922213V5.87634H6.79856C7.30762 5.87634 7.72077 6.2895 7.72077 6.79856C7.72077 7.30762 7.30762 7.72077 6.79856 7.72077Z" fill="#1E1EC8"/>
<path d="M9.14799 17.1222C7.34414 17.1222 5.87598 15.654 5.87598 13.8501C5.87598 12.0463 7.34414 10.5781 9.14799 10.5781C10.9518 10.5781 12.42 12.0463 12.42 13.8501C12.42 15.654 10.9518 17.1222 9.14799 17.1222ZM9.14799 12.4207C8.36042 12.4207 7.7204 13.0607 7.7204 13.8483C7.7204 14.6359 8.36042 15.2759 9.14799 15.2759C9.93556 15.2759 10.5756 14.6359 10.5756 13.8483C10.5756 13.0607 9.93556 12.4207 9.14799 12.4207Z" fill="#1E1EC8"/>
</svg>
