<svg width="24" height="24" viewBox="0 0 24 24" fill="none" xmlns="http://www.w3.org/2000/svg">
<path d="M15.2929 6.29289C15.6834 5.90237 16.3164 5.90237 16.707 6.29289C17.0975 6.68342 17.0975 7.31643 16.707 7.70696L7.70696 16.707C7.31643 17.0975 6.68342 17.0975 6.29289 16.707C5.90237 16.3164 5.90237 15.6834 6.29289 15.2929L15.2929 6.29289Z" fill="currentColor"/>
<path d="M7.70698 6.29289C7.31646 5.90237 6.68345 5.90237 6.29292 6.29289C5.9024 6.68342 5.9024 7.31643 6.29292 7.70696L15.2929 16.707C15.6834 17.0975 16.3165 17.0975 16.707 16.707C17.0975 16.3164 17.0975 15.6834 16.707 15.2929L7.70698 6.29289Z" fill="currentColor"/>
</svg>
