<svg width="24" height="24" viewBox="0 0 24 24" fill="none" xmlns="http://www.w3.org/2000/svg">
<path d="M18.0929 23H12.5091C12.0237 23 11.6298 22.6072 11.6298 22.1232C11.6298 21.6391 12.0237 21.2463 12.5091 21.2463H18.0929C18.7278 21.2463 19.2431 20.7307 19.2431 20.0994V7.301L14.6829 2.75369H5.90884C5.27396 2.75369 4.75867 3.26927 4.75867 3.90235V13.5196C4.75867 14.0036 4.36473 14.3964 3.87934 14.3964C3.39394 14.3964 3 14.0036 3 13.5196V3.90235C3 2.30124 4.30493 1 5.90884 1H15.0451C15.279 1 15.5024 1.09295 15.6677 1.25604L20.7432 6.31718C20.9085 6.48202 21 6.70474 21 6.93798V20.0977C21 21.697 19.6951 22.9982 18.0912 22.9982L18.0929 23Z" fill="#1E1EC8"/>
<path d="M20.1358 8.76471H16.1446C14.5683 8.76471 13.2857 7.47407 13.2857 5.88599V1.8697C13.2857 1.38963 13.6729 1 14.15 1C14.627 1 15.0142 1.38963 15.0142 1.8697V5.88599C15.0142 6.51392 15.5224 7.0253 16.1446 7.0253H20.1358C20.6128 7.0253 21 7.41493 21 7.895C21 8.37508 20.6128 8.76471 20.1358 8.76471Z" fill="#1E1EC8"/>
<path d="M4.34733 23C4.21921 23 4.0928 22.9811 3.9698 22.945C3.25744 22.7352 2.84575 21.982 3.05416 21.2632L3.87926 18.4137C4.01251 17.9563 4.26021 17.535 4.59503 17.198L9.5354 12.2231C10.0923 11.6625 10.8337 11.3529 11.6212 11.3529C12.4087 11.3529 13.1501 11.6625 13.707 12.2231C14.2639 12.7837 14.5714 13.5283 14.5714 14.3227C14.5714 15.1172 14.2639 15.8618 13.707 16.4224L8.76325 21.3956C8.42843 21.7326 8.01161 21.982 7.5572 22.1144L4.72657 22.945C4.60357 22.9811 4.47716 23 4.34904 23H4.34733ZM11.6212 13.076C11.2898 13.076 10.9789 13.2067 10.7432 13.4423L5.80279 18.4172C5.66954 18.5513 5.57217 18.7164 5.51922 18.8987L4.87861 21.1118L7.07717 20.467C7.25654 20.4137 7.42225 20.3157 7.55379 20.1832L12.4976 15.2101C12.7316 14.9745 12.8614 14.6615 12.8614 14.3279C12.8614 13.9943 12.7316 13.6813 12.4976 13.4457C12.2635 13.2101 11.9509 13.0795 11.6212 13.0795V13.076Z" fill="#1E1EC8"/>
</svg>
