<svg width="24" height="24" viewBox="0 0 24 24" fill="none" xmlns="http://www.w3.org/2000/svg">
<path d="M15.6977 12.8047H10.3679C9.90446 12.8047 9.52832 12.4442 9.52832 12C9.52832 11.5558 9.90446 11.1953 10.3679 11.1953H15.6977C16.1612 11.1953 16.5373 11.5558 16.5373 12C16.5373 12.4442 16.1612 12.8047 15.6977 12.8047Z" fill="currentColor"/>
<path d="M15.6977 8.71877H10.3679C9.90446 8.71877 9.52832 8.35827 9.52832 7.91407C9.52832 7.46988 9.90446 7.10938 10.3679 7.10938H15.6977C16.1612 7.10938 16.5373 7.46988 16.5373 7.91407C16.5373 8.35827 16.1612 8.71877 15.6977 8.71877Z" fill="currentColor"/>
<path d="M19.9618 17.9137C19.4983 17.9137 19.1222 17.5532 19.1222 17.109V4.84864C19.1222 4.16625 18.5428 3.6094 17.8292 3.6094H3.97241C3.50895 3.6094 3.13281 3.24889 3.13281 2.8047C3.13281 2.36051 3.50895 2 3.97241 2H17.8308C19.4697 2 20.803 3.27786 20.803 4.84864V17.109C20.803 17.5532 20.4269 17.9137 19.9634 17.9137H19.9618Z" fill="currentColor"/>
<path d="M21.0275 22H8.2354C6.5965 22 5.26321 20.7221 5.26321 19.1514V8.71763H2.90394C1.85276 8.71763 0.998047 7.89845 0.998047 6.89096V4.84703C0.999726 3.27786 2.33301 2 3.97191 2C5.61081 2 6.94409 3.27786 6.94409 4.84864V19.153C6.94409 19.8354 7.52342 20.3922 8.23708 20.3922C8.95074 20.3922 9.53006 19.837 9.53006 19.153V18.131C9.53006 17.1235 10.3848 16.3043 11.436 16.3043H22.0972C23.1484 16.3043 24.0031 17.1235 24.0031 18.131V19.153C24.0031 20.7237 22.6698 22.0016 21.0309 22.0016L21.0275 22ZM10.912 20.3906H21.0292C21.7412 20.3906 22.3222 19.8354 22.3222 19.1514V18.1294C22.3222 18.0103 22.2198 17.9121 22.0955 17.9121H11.4343C11.31 17.9121 11.2076 18.0087 11.2076 18.1294V19.1514C11.2076 19.5956 11.1018 20.0156 10.912 20.3906ZM3.97191 3.6094C3.25993 3.6094 2.67893 4.16464 2.67893 4.84864V6.89257C2.67893 7.01167 2.78136 7.10984 2.90562 7.10984H5.26489V4.84864C5.26489 4.16625 4.68557 3.6094 3.97191 3.6094Z" fill="currentColor"/>
</svg>
