<svg width="24" height="24" viewBox="0 0 24 24" fill="none" xmlns="http://www.w3.org/2000/svg">
<path d="M9.57662 12.9867H2.18407C1.53086 12.9867 1 12.4558 1 11.8026V2.18406C1 1.53085 1.53086 1 2.18407 1H9.57662C10.2298 1 10.7607 1.53085 10.7607 2.18406V11.8026C10.7607 12.4558 10.2298 12.9867 9.57662 12.9867ZM2.97345 11.0132H8.78724V2.97344H2.97345V11.0132Z" fill="#1E1EC8"/>
<path d="M21.8159 8.53655H14.4214C13.7682 8.53655 13.2373 8.0057 13.2373 7.35249V2.18406C13.2373 1.53085 13.7682 1 14.4214 1H21.8159C22.4691 1 23 1.53085 23 2.18406V7.35249C23 8.0057 22.4691 8.53655 21.8159 8.53655ZM15.2128 6.56312H21.0285V2.97344H15.2128V6.56312Z" fill="#1E1EC8"/>
<path d="M21.8159 23H14.4214C13.7682 23 13.2373 22.4691 13.2373 21.8159V12.1974C13.2373 11.5442 13.7682 11.0133 14.4214 11.0133H21.8159C22.4691 11.0133 23 11.5442 23 12.1974V21.8159C23 22.4691 22.4691 23 21.8159 23ZM15.2128 21.0265H21.0285V12.9867H15.2128V21.0265Z" fill="#1E1EC8"/>
<path d="M9.57662 23H2.18407C1.53086 23 1 22.4691 1 21.8159V16.6475C1 15.9943 1.53086 15.4634 2.18407 15.4634H9.57662C10.2298 15.4634 10.7607 15.9943 10.7607 16.6475V21.8159C10.7607 22.4691 10.2298 23 9.57662 23ZM2.97345 21.0266H8.78724V17.4369H2.97345V21.0266Z" fill="#1E1EC8"/>
</svg>
