<svg width="24" height="24" viewBox="0 0 24 24" fill="none" xmlns="http://www.w3.org/2000/svg">
<path d="M14.7052 14.8415H1.79377C1.35561 14.8415 1 14.4849 1 14.0455V2.79592C1 2.35657 1.35561 2 1.79377 2H18.112C18.5502 2 18.9058 2.35657 18.9058 2.79592V10.3445C18.9058 10.7838 18.5502 11.1404 18.112 11.1404C17.6738 11.1404 17.3182 10.7838 17.3182 10.3445V3.59185H2.58753V13.2496H14.7052C15.1433 13.2496 15.4989 13.6062 15.4989 14.0455C15.4989 14.4849 15.1433 14.8415 14.7052 14.8415Z" fill="currentColor"/>
<path d="M12.7652 17.8087H7.14057C6.70241 17.8087 6.3468 17.4521 6.3468 17.0127C6.3468 16.5734 6.70241 16.2168 7.14057 16.2168H12.7652C13.2033 16.2168 13.559 16.5734 13.559 17.0127C13.559 17.4521 13.2033 17.8087 12.7652 17.8087Z" fill="currentColor"/>
<path d="M22.2062 22H15.01C14.5718 22 14.2162 21.6434 14.2162 21.2041V10.9764C14.2162 10.5371 14.5718 10.1805 15.01 10.1805H22.2062C22.6444 10.1805 23 10.5371 23 10.9764V21.2025C23 21.6418 22.6444 21.9984 22.2062 21.9984V22ZM15.8037 20.4082H21.4125V11.774H15.8037V20.4082Z" fill="currentColor"/>
</svg>
