<svg width="24" height="24" viewBox="0 0 24 24" fill="none" xmlns="http://www.w3.org/2000/svg">
<path d="M14.9511 15.1256H0.865926C0.387935 15.1256 0 14.7334 0 14.2501V1.87552C0 1.39223 0.387935 1 0.865926 1H18.6676C19.1456 1 19.5336 1.39223 19.5336 1.87552V10.1789C19.5336 10.6622 19.1456 11.0544 18.6676 11.0544C18.1896 11.0544 17.8017 10.6622 17.8017 10.1789V2.75103H1.73185V13.3746H14.9511C15.4291 13.3746 15.817 13.7668 15.817 14.2501C15.817 14.7334 15.4291 15.1256 14.9511 15.1256Z" fill="#1E1EC8"/>
<path d="M12.8349 18.3878H6.69893C6.22094 18.3878 5.83301 17.9955 5.83301 17.5122C5.83301 17.029 6.22094 16.6367 6.69893 16.6367H12.8349C13.3129 16.6367 13.7008 17.029 13.7008 17.5122C13.7008 17.9955 13.3129 18.3878 12.8349 18.3878Z" fill="#1E1EC8"/>
<path d="M23.1344 23.0014H15.2839C14.8059 23.0014 14.418 22.6092 14.418 22.1259V10.8755C14.418 10.3922 14.8059 10 15.2839 10H23.1344C23.6124 10 24.0003 10.3922 24.0003 10.8755V22.1242C24.0003 22.6074 23.6124 22.9997 23.1344 22.9997V23.0014ZM16.1498 21.2504H22.2685V11.7528H16.1498V21.2504Z" fill="#1E1EC8"/>
</svg>
