<svg width="24" height="24" viewBox="0 0 24 24" fill="none" xmlns="http://www.w3.org/2000/svg">
<path d="M14.951 15.1256H0.865804C0.387813 15.1256 -0.00012207 14.7334 -0.00012207 14.2501V1.87552C-0.00012207 1.39223 0.387813 1 0.865804 1H18.6675C19.1455 1 19.5334 1.39223 19.5334 1.87552V10.1789C19.5334 10.6622 19.1455 11.0544 18.6675 11.0544C18.1895 11.0544 17.8016 10.6622 17.8016 10.1789V2.75103H1.73173V13.3746H14.951C15.4289 13.3746 15.8169 13.7668 15.8169 14.2501C15.8169 14.7334 15.4289 15.1256 14.951 15.1256Z" fill="#1E1EC8"/>
<path d="M12.8348 18.3878H6.69881C6.22082 18.3878 5.83289 17.9955 5.83289 17.5122C5.83289 17.029 6.22082 16.6367 6.69881 16.6367H12.8348C13.3128 16.6367 13.7007 17.029 13.7007 17.5122C13.7007 17.9955 13.3128 18.3878 12.8348 18.3878Z" fill="#1E1EC8"/>
<path d="M23.1343 23.0014H15.2838C14.8058 23.0014 14.4178 22.6092 14.4178 22.1259V10.8755C14.4178 10.3922 14.8058 10 15.2838 10H23.1343C23.6122 10 24.0002 10.3922 24.0002 10.8755V22.1242C24.0002 22.6074 23.6122 22.9997 23.1343 22.9997V23.0014ZM16.1497 21.2504H22.2683V11.7528H16.1497V21.2504Z" fill="#1E1EC8"/>
</svg>
