<svg width="24" height="24" viewBox="0 0 24 24" fill="none" xmlns="http://www.w3.org/2000/svg">
<path d="M5.14474 14.1369H13.4342V12.5187H5.14474V14.1369ZM5.14474 10.9004H17.8553V9.28214H5.14474V10.9004ZM5.14474 7.66389H17.8553V6.04563H5.14474V7.66389ZM1 22V3.95027C1 3.40527 1.19342 2.94398 1.58026 2.56639C1.96711 2.1888 2.4397 2 2.99804 2H20.002C20.5603 2 21.0329 2.1888 21.4197 2.56639C21.8066 2.94398 22 3.40527 22 3.95027V16.2323C22 16.7773 21.8066 17.2386 21.4197 17.6162C21.0329 17.9937 20.5603 18.1825 20.002 18.1825H4.91097L1 22ZM4.20526 16.5643H20.002C20.0871 16.5643 20.165 16.5297 20.2357 16.4604C20.3066 16.3914 20.3421 16.3153 20.3421 16.2323V3.95027C20.3421 3.8672 20.3066 3.79114 20.2357 3.72209C20.165 3.65287 20.0871 3.61825 20.002 3.61825H2.99804C2.91293 3.61825 2.83501 3.65287 2.76428 3.72209C2.69336 3.79114 2.65789 3.8672 2.65789 3.95027V18.0582L4.20526 16.5643Z" fill="currentColor"/>
</svg>
