<svg width="24" height="24" viewBox="0 0 24 24" fill="none" xmlns="http://www.w3.org/2000/svg">
<path d="M21.5107 18.1994L18.9232 20.6982L18.9198 20.701C18.4025 21.1888 17.7556 21.5201 17.0549 21.6561L17.0561 21.6594C17.0477 21.6611 17.0398 21.6594 17.032 21.6617C16.9984 21.6683 16.9659 21.6805 16.9311 21.6861L16.9289 21.6717C16.7082 21.7089 16.4863 21.7377 16.2662 21.7377C13.6255 21.7377 11.1097 19.2578 10.9932 19.1423L7.80124 16.0738L7.78835 16.0599L4.60034 12.9736C4.47542 12.8581 1.38096 9.93619 1.99772 7.13198L2.01228 7.13476C2.14832 6.45005 2.49005 5.82212 2.99261 5.3334L2.99485 5.33118L5.58346 2.8335L10.4778 7.55511L7.75586 10.17L13.9084 16.1049L16.6292 13.4784L21.5107 18.1994ZM19.9029 18.1994L16.6298 15.0332L13.9089 17.6586L6.14365 10.1677L8.86559 7.55345L5.58346 4.38719L3.80208 6.10692C3.43292 6.46332 3.18885 6.92772 3.10577 7.43184L3.10353 7.43128C2.68899 9.62245 5.37228 12.1657 5.39972 12.1912L8.59502 15.2853L8.60622 15.2947L11.806 18.371C11.8396 18.4049 14.496 21.0286 16.7788 20.59C17.2835 20.5018 17.7507 20.2681 18.1221 19.9181L19.9029 18.1994Z" fill="currentColor"/>
</svg>
