<svg width="24" height="24" viewBox="0 0 24 24" fill="none" xmlns="http://www.w3.org/2000/svg">
<path d="M15.1097 23.0011C14.6432 23.0011 14.2646 22.6066 14.2646 22.1204V13.5987C14.2646 13.4965 14.1851 13.4138 14.0871 13.4138H9.99835C9.90031 13.4138 9.82087 13.4965 9.82087 13.5987V22.1204C9.82087 22.6066 9.44225 23.0011 8.97574 23.0011C8.50923 23.0011 8.13062 22.6066 8.13062 22.1204V13.5987C8.13062 12.526 8.96898 11.6523 9.99835 11.6523H14.0871C15.1164 11.6523 15.9548 12.526 15.9548 13.5987V22.1204C15.9548 22.6066 15.5762 23.0011 15.1097 23.0011Z" fill="currentColor"/>
<path d="M19.1984 23.0009H4.88865C3.29643 23.0009 2 21.6499 2 19.9907V10.4051C2 9.51732 2.37355 8.67888 3.0243 8.10466L10.1741 1.71778C11.2592 0.761329 12.8278 0.761329 13.9079 1.71425L21.0661 8.10819C21.7135 8.67712 22.0853 9.51556 22.0853 10.4051V19.9907C22.0853 21.6517 20.7889 23.0009 19.1967 23.0009H19.1984ZM12.0452 2.76229C11.7697 2.76229 11.4942 2.86093 11.2694 3.05821L4.11958 9.4451C3.84576 9.68641 3.69026 10.0352 3.69026 10.4033V19.9889C3.69026 20.6776 4.22776 21.2378 4.88865 21.2378H19.1984C19.8592 21.2378 20.3968 20.6776 20.3968 19.9889V10.4033C20.3968 10.0352 20.2412 9.68641 19.9708 9.44862L12.8126 3.05645C12.5911 2.86093 12.319 2.76406 12.0452 2.76406V2.76229Z" fill="currentColor"/>
</svg>
