<svg width="24" height="24" viewBox="0 0 24 24" fill="none" xmlns="http://www.w3.org/2000/svg">
<path d="M21.0651 23.999C20.923 23.999 20.779 23.9663 20.6463 23.8969L18.9226 23.0085L17.1989 23.8969C16.9353 24.0318 16.6268 24.0318 16.3632 23.8969L14.6395 23.0085L12.9158 23.8969C12.6522 24.0337 12.3437 24.0318 12.0801 23.8969L10.3564 23.0085L8.63272 23.8969C8.36911 24.0337 8.06064 24.0318 7.79704 23.8969L6.07333 23.0085L4.34963 23.8969C4.05985 24.0453 3.71586 24.0299 3.43917 23.8545C3.16435 23.6791 2.99609 23.3689 2.99609 23.0355V0.962586C2.99983 0.629199 3.16809 0.318938 3.44291 0.143572C3.71773 -0.0317931 4.06359 -0.0472098 4.35337 0.101176L6.07707 0.989566L7.79891 0.101176C8.06251 -0.0337201 8.37098 -0.0337201 8.63459 0.101176L10.3583 0.989566L12.082 0.101176C12.3456 -0.0337201 12.6541 -0.0337201 12.9177 0.101176L14.6414 0.989566L16.3651 0.101176C16.6287 -0.0337201 16.939 -0.0337201 17.2008 0.101176L18.9245 0.989566L20.6482 0.101176C20.9379 -0.0472098 21.2819 -0.0317931 21.5586 0.143572C21.8334 0.318938 22.0017 0.629199 22.0017 0.962586V23.0355C22.0017 23.3689 21.8334 23.6791 21.5586 23.8545C21.4091 23.9509 21.2389 23.999 21.0669 23.999H21.0651ZM10.3583 20.9677C10.5022 20.9677 10.6443 21.0024 10.7771 21.0699L12.5008 21.9583L14.2245 21.0699C14.4881 20.935 14.7965 20.935 15.0601 21.0699L16.7839 21.9583L18.5076 21.0699C18.7712 20.935 19.0796 20.935 19.3432 21.0699L20.1322 21.4765V2.5216L19.3432 2.92822C19.0796 3.06504 18.7693 3.06312 18.5076 2.92822L16.7839 2.03983L15.0601 2.92822C14.7965 3.06312 14.4881 3.06312 14.2245 2.92822L12.5008 2.03983L10.7771 2.92822C10.5135 3.06312 10.205 3.06312 9.94139 2.92822L8.21768 2.03983L6.49398 2.92822C6.23038 3.06312 5.9219 3.06312 5.6583 2.92822L4.86936 2.5216V21.4765L5.6583 21.0699C5.9219 20.935 6.23224 20.935 6.49398 21.0699L8.21768 21.9583L9.94139 21.0699C10.0723 21.0024 10.2162 20.9677 10.3602 20.9677H10.3583Z" fill="#1E1EC8"/>
<path d="M14.6417 8.54819H8.21797C7.70198 8.54819 7.2832 8.11652 7.2832 7.58464C7.2832 7.05276 7.70198 6.62109 8.21797 6.62109H14.6417C15.1576 6.62109 15.5764 7.05276 15.5764 7.58464C15.5764 8.11652 15.1576 8.54819 14.6417 8.54819Z" fill="#1E1EC8"/>
<path d="M16.7823 12.9622H8.21797C7.70198 12.9622 7.2832 12.5306 7.2832 11.9987C7.2832 11.4668 7.70198 11.0352 8.21797 11.0352H16.7841C17.3001 11.0352 17.7189 11.4668 17.7189 11.9987C17.7189 12.5306 17.3001 12.9622 16.7841 12.9622H16.7823Z" fill="#1E1EC8"/>
<path d="M13.5704 17.3763H8.21797C7.70198 17.3763 7.2832 16.9446 7.2832 16.4128C7.2832 15.8809 7.70198 15.4492 8.21797 15.4492H13.5704C14.0864 15.4492 14.5052 15.8809 14.5052 16.4128C14.5052 16.9446 14.0864 17.3763 13.5704 17.3763Z" fill="#1E1EC8"/>
</svg>
