<svg width="24" height="24" viewBox="0 0 24 24" fill="none" xmlns="http://www.w3.org/2000/svg">
<path d="M16.4574 18.5399C16.2099 18.5399 15.9624 18.4451 15.7729 18.2576C15.3959 17.8806 15.3959 17.2677 15.7729 16.8907L20.663 12.0012L15.7729 7.11163C15.3959 6.73462 15.3959 6.12173 15.7729 5.74472C16.15 5.36771 16.7629 5.36771 17.14 5.74472L22.7145 11.3187C23.0915 11.6957 23.0915 12.3086 22.7145 12.6856L17.14 18.2595C16.9505 18.449 16.703 18.5418 16.4555 18.5418L16.4574 18.5399Z" fill="currentColor"/>
<path d="M22.0313 12.9655H8.65281C8.11914 12.9655 7.68602 12.5324 7.68602 11.9988C7.68602 11.4652 8.11914 11.0321 8.65281 11.0321H22.0313C22.5649 11.0321 22.998 11.4652 22.998 11.9988C22.998 12.5324 22.5649 12.9655 22.0313 12.9655Z" fill="currentColor"/>
<path d="M8.6531 23H4.19426C2.43083 23 0.998049 21.5654 0.998049 19.8041V4.19589C0.996115 2.43457 2.43083 1 4.19232 1H8.65116C9.18483 1 9.61795 1.43308 9.61795 1.96669C9.61795 2.50031 9.18483 2.93339 8.65116 2.93339H4.19232C3.49624 2.93339 2.9297 3.49987 2.9297 4.19589V19.8022C2.9297 20.4982 3.49624 21.0647 4.19232 21.0647H8.65116C9.18483 21.0647 9.61795 21.4978 9.61795 22.0314C9.61795 22.565 9.18483 22.9981 8.65116 22.9981L8.6531 23Z" fill="currentColor"/>
</svg>
