<svg width="24" height="24" viewBox="0 0 24 24" fill="none" xmlns="http://www.w3.org/2000/svg">
<path d="M16.3496 17.1481C16.1358 17.1481 15.9221 17.0663 15.7585 16.9043C15.4329 16.5787 15.4329 16.0494 15.7585 15.7238L19.9813 11.501L15.7585 7.27822C15.4329 6.95262 15.4329 6.42332 15.7585 6.09772C16.0841 5.77212 16.6134 5.77212 16.939 6.09772L21.7529 10.9116C22.0785 11.2372 22.0785 11.7665 21.7529 12.0921L16.939 16.906C16.7754 17.0696 16.5616 17.1497 16.3479 17.1497L16.3496 17.1481Z" fill="#1E1EC8"/>
<path d="M21.1635 12.3338H9.61051C9.14966 12.3338 8.77563 11.9598 8.77563 11.4989C8.77563 11.0381 9.14966 10.6641 9.61051 10.6641H21.1635C21.6243 10.6641 21.9983 11.0381 21.9983 11.4989C21.9983 11.9598 21.6243 12.3338 21.1635 12.3338Z" fill="#1E1EC8"/>
<path d="M9.61051 21H5.76009C4.23728 21 3 19.7611 3 18.2399V4.76008C2.99833 3.23895 4.23728 2 5.75842 2H9.60884C10.0697 2 10.4437 2.37402 10.4437 2.83487C10.4437 3.29572 10.0697 3.66974 9.60884 3.66974H5.75842C5.15731 3.66974 4.66807 4.15898 4.66807 4.76008V18.2382C4.66807 18.8394 5.15731 19.3286 5.75842 19.3286H9.60884C10.0697 19.3286 10.4437 19.7026 10.4437 20.1635C10.4437 20.6243 10.0697 20.9983 9.60884 20.9983L9.61051 21Z" fill="#1E1EC8"/>
</svg>
