<svg width="24" height="24" viewBox="0 0 24 24" fill="none" xmlns="http://www.w3.org/2000/svg">
<g clip-path="url(#clip0_906_3193)">
<path d="M21.8509 13.6168H2.14907C1.51478 13.6168 1 13.1165 1 12.5C1 11.8836 1.51478 11.3833 2.14907 11.3833H21.8509C22.4852 11.3833 23 11.8836 23 12.5C23 13.1165 22.4852 13.6168 21.8509 13.6168Z" fill="#1E1EC8"/>
<path d="M21.8509 20.0001H2.14907C1.51478 20.0001 1 19.4998 1 18.8833C1 18.2669 1.51478 17.7666 2.14907 17.7666H21.8509C22.4852 17.7666 23 18.2669 23 18.8833C23 19.4998 22.4852 20.0001 21.8509 20.0001Z" fill="#1E1EC8"/>
<path d="M21.8509 7.23347H2.14907C1.51478 7.23347 1 6.73317 1 6.11674C1 5.5003 1.51478 5 2.14907 5H21.8509C22.4852 5 23 5.5003 23 6.11674C23 6.73317 22.4852 7.23347 21.8509 7.23347Z" fill="#1E1EC8"/>
</g>
<defs>
<clipPath id="clip0_906_3193">
<rect width="22" height="15" fill="white" transform="translate(1 5)"/>
</clipPath>
</defs>
</svg>
