<svg width="24" height="24" viewBox="0 0 24 24" fill="none" xmlns="http://www.w3.org/2000/svg">
<g clip-path="url(#clip0_1722_2593)">
<path d="M21.8774 13.6163H2.12284C1.48686 13.6163 0.970703 13.116 0.970703 12.4995C0.970703 11.8831 1.48686 11.3828 2.12284 11.3828H21.8774C22.5134 11.3828 23.0295 11.8831 23.0295 12.4995C23.0295 13.116 22.5134 13.6163 21.8774 13.6163Z" fill="currentColor"/>
<path d="M21.8774 19.9991H2.12284C1.48686 19.9991 0.970703 19.4988 0.970703 18.8824C0.970703 18.2659 1.48686 17.7656 2.12284 17.7656H21.8774C22.5134 17.7656 23.0295 18.2659 23.0295 18.8824C23.0295 19.4988 22.5134 19.9991 21.8774 19.9991Z" fill="currentColor"/>
<path d="M21.8774 7.23347H2.12284C1.48686 7.23347 0.970703 6.73317 0.970703 6.11674C0.970703 5.5003 1.48686 5 2.12284 5H21.8774C22.5134 5 23.0295 5.5003 23.0295 6.11674C23.0295 6.73317 22.5134 7.23347 21.8774 7.23347Z" fill="currentColor"/>
</g>
<defs>
<clipPath id="clip0_1722_2593">
<rect width="22.0588" height="15" fill="white" transform="translate(0.970703 5)"/>
</clipPath>
</defs>
</svg>
