<svg width="24" height="24" viewBox="0 0 24 24" fill="none" xmlns="http://www.w3.org/2000/svg">
<path d="M20.1209 8.82659H16.0596C14.4561 8.82659 13.1498 7.52566 13.1498 5.92493V1.87663C13.1498 1.39273 13.5437 1 14.0289 1C14.5142 1 14.908 1.39273 14.908 1.87663V5.92668C14.908 6.55961 15.4249 7.07507 16.0596 7.07507H20.1209C20.6062 7.07507 21 7.4678 21 7.95171C21 8.43561 20.6062 8.82834 20.1209 8.82834V8.82659Z" fill="currentColor"/>
<path d="M18.0903 23H5.90975C4.30631 23 3 21.6991 3 20.0983V3.90166C3 2.30092 4.30455 1 5.90975 1H15.0451C15.279 1 15.5022 1.09292 15.6675 1.25598L20.7433 6.31766C20.9086 6.48247 21 6.70513 21 6.93832V20.0983C21 21.6973 19.6954 23 18.0903 23ZM5.90975 2.75327C5.27505 2.75327 4.75816 3.26873 4.75816 3.90166V20.0983C4.75816 20.7313 5.27505 21.2467 5.90975 21.2467H18.092C18.7267 21.2467 19.2436 20.7313 19.2436 20.0983V7.30124L14.6829 2.75327H5.90975Z" fill="currentColor"/>
<path d="M16.3884 22.2215C15.9031 22.2215 15.5093 21.8288 15.5093 21.3449V20.0948C15.5093 19.1989 14.7779 18.4713 13.8812 18.4713H10.1205C9.22211 18.4713 8.49248 19.2007 8.49248 20.0948V21.3449C8.49248 21.8288 8.09865 22.2215 7.6134 22.2215C7.12815 22.2215 6.73432 21.8288 6.73432 21.3449V20.0948C6.73432 18.2329 8.25337 16.718 10.1205 16.718H13.8812C15.7484 16.718 17.2674 18.2329 17.2674 20.0948V21.3449C17.2674 21.8288 16.8736 22.2215 16.3884 22.2215Z" fill="currentColor"/>
<path d="M12 15.9694C10.1328 15.9694 8.61379 14.4546 8.61379 12.5926C8.61379 10.7306 10.1328 9.21581 12 9.21581C13.8672 9.21581 15.3862 10.7306 15.3862 12.5926C15.3862 14.4546 13.8672 15.9694 12 15.9694ZM12 10.9673C11.1016 10.9673 10.3719 11.6967 10.3719 12.5909C10.3719 13.485 11.1033 14.2144 12 14.2144C12.8967 14.2144 13.6281 13.485 13.6281 12.5909C13.6281 11.6967 12.8967 10.9673 12 10.9673Z" fill="currentColor"/>
</svg>
