<svg width="24" height="24" viewBox="0 0 24 24" fill="none" xmlns="http://www.w3.org/2000/svg">
<path d="M21.0231 17.6779H17.8382C16.1633 17.6779 14.7997 16.3103 14.7997 14.6305C14.7997 12.9507 16.1633 11.583 17.8382 11.583H20.1079V8.2418C20.1079 8.16103 20.042 8.09494 19.9615 8.09494H4.03852C2.36367 8.09494 1 6.72725 1 5.04747C1 3.36769 2.36367 2 4.03852 2H17.84C18.9309 2 19.8169 2.88854 19.8169 3.98269V6.25911H19.9633C21.0542 6.25911 21.9402 7.14765 21.9402 8.2418V11.8088C22.5698 12.1411 23.0018 12.8038 23.0018 13.5657V15.6953C23.0018 16.7876 22.1159 17.6779 21.025 17.6779H21.0231ZM17.84 13.4188C17.1737 13.4188 16.6319 13.9622 16.6319 14.6305C16.6319 15.2987 17.1737 15.8421 17.84 15.8421H21.025C21.1055 15.8421 21.1714 15.776 21.1714 15.6953V13.5657C21.1714 13.4849 21.1055 13.4188 21.025 13.4188H17.84ZM4.03852 3.83582C3.37224 3.83582 2.83044 4.37923 2.83044 5.04747C2.83044 5.71571 3.37224 6.25911 4.03852 6.25911H17.9864V3.98269C17.9864 3.90191 17.9205 3.83582 17.84 3.83582H4.03852Z" fill="#1E1EC8"/>
<path d="M19.9615 22.9994H4.03852C2.36367 22.9994 1 21.6317 1 19.9519V5.04682C1 4.54013 1.41002 4.12891 1.91522 4.12891C2.42042 4.12891 2.83044 4.54013 2.83044 5.04682V19.9537C2.83044 20.622 3.37224 21.1654 4.03852 21.1654H19.9633C20.0438 21.1654 20.1097 21.0993 20.1097 21.0185V16.7594C20.1097 16.2527 20.5198 15.8415 21.025 15.8415C21.5302 15.8415 21.9402 16.2527 21.9402 16.7594V21.0185C21.9402 22.1126 21.0542 23.0012 19.9633 23.0012L19.9615 22.9994Z" fill="#1E1EC8"/>
</svg>
