<svg width="24" height="24" viewBox="0 0 24 24" fill="none" xmlns="http://www.w3.org/2000/svg">
<path d="M12.12 12.78C12.05 12.77 11.96 12.77 11.88 12.78C10.12 12.72 8.71997 11.28 8.71997 9.50998C8.71997 7.69998 10.18 6.22998 12 6.22998C13.81 6.22998 15.28 7.69998 15.28 9.50998C15.27 11.28 13.88 12.72 12.12 12.78Z" stroke="currentColor" stroke-width="2" stroke-linecap="round" stroke-linejoin="round"/>
<path d="M18.74 19.3796C16.96 21.0096 14.6 21.9996 12 21.9996C9.40001 21.9996 7.04001 21.0096 5.26001 19.3796C5.36001 18.4396 5.96001 17.5196 7.03001 16.7996C9.77001 14.9796 14.25 14.9796 16.97 16.7996C18.04 17.5196 18.64 18.4396 18.74 19.3796Z" stroke="currentColor" stroke-width="2" stroke-linecap="round" stroke-linejoin="round"/>
<path d="M12 21.9998C17.5228 21.9998 22 17.5226 22 11.9998C22 6.47691 17.5228 1.99976 12 1.99976C6.47715 1.99976 2 6.47691 2 11.9998C2 17.5226 6.47715 21.9998 12 21.9998Z" stroke="currentColor" stroke-width="2" stroke-linecap="round" stroke-linejoin="round"/>
</svg>
