<svg width="24" height="24" viewBox="0 0 24 24" fill="none" xmlns="http://www.w3.org/2000/svg">
<path d="M20.4564 16.1928C20.2328 16.1928 20.007 16.1249 19.8168 15.9833C19.3612 15.6461 19.2776 15.0197 19.6308 14.5828C20.1492 13.9443 20.5797 13.2421 20.9058 12.4979C19.2483 8.72127 15.1309 6.42495 10.863 6.90975C10.2903 6.97559 9.7699 6.58456 9.70093 6.03791C9.63196 5.49126 10.0416 4.99449 10.6143 4.92866C15.8248 4.33612 20.8598 7.15514 22.8579 11.7877C22.8621 11.7976 22.8662 11.8096 22.8704 11.8196C23.0418 12.2565 23.0418 12.7393 22.8704 13.1762C22.8662 13.1862 22.8621 13.1982 22.8579 13.2082C22.4566 14.1379 21.9257 15.0117 21.2799 15.8057C21.073 16.0591 20.7657 16.1928 20.4522 16.1928H20.4564Z" fill="currentColor"/>
<path d="M12.0021 16.3484C11.977 16.3484 11.954 16.3484 11.931 16.3484C10.8546 16.3304 9.84933 15.9135 9.10108 15.1733C7.5837 13.675 7.5837 11.3248 9.10108 9.82653C9.50237 9.42951 10.1628 9.41954 10.5788 9.80259C10.9947 10.1856 11.0051 10.8161 10.6038 11.2131C9.87232 11.9353 9.87232 13.0665 10.6038 13.7887C10.9633 14.1438 11.4482 14.3453 11.9666 14.3533C12.4828 14.3633 12.9761 14.1778 13.3481 13.8326C13.764 13.4496 14.4245 13.4615 14.8258 13.8565C15.2271 14.2536 15.2145 14.884 14.8007 15.2671C14.0441 15.9653 13.0513 16.3484 12.0021 16.3484Z" fill="currentColor"/>
<path d="M12.0209 20.147C8.0038 20.147 4.08702 18.1838 1.89455 14.6506C1.60821 14.1897 1.35531 13.7049 1.14212 13.2101C1.13794 13.2002 1.13376 13.1882 1.12958 13.1782C0.958199 12.7413 0.958199 12.2585 1.12958 11.8216C1.13376 11.8116 1.13794 11.7996 1.14212 11.7897C2.10355 9.56119 3.82995 7.6559 5.99943 6.42495C6.49477 6.14365 7.13642 6.29926 7.43112 6.77209C7.72582 7.24492 7.5628 7.8574 7.06745 8.13871C5.29926 9.14222 3.89056 10.6884 3.09633 12.4979C3.26772 12.887 3.46836 13.268 3.69409 13.6331C6.40699 18.0063 12.3428 19.4567 16.9242 16.8651C17.4216 16.5838 18.0612 16.7414 18.3559 17.2142C18.6506 17.6871 18.4855 18.2995 17.9901 18.5809C16.1174 19.6402 14.0566 20.143 12.023 20.143L12.0209 20.147Z" fill="currentColor"/>
<path d="M21.955 22.9998C21.6874 22.9998 21.4199 22.902 21.2151 22.7085L1.30724 3.70355C0.897587 3.31252 0.897587 2.68208 1.30724 2.29105C1.7148 1.90201 2.37735 1.90201 2.78491 2.29105L22.6949 21.296C23.1024 21.685 23.1024 22.3175 22.6949 22.7065C22.49 22.902 22.2225 22.9978 21.955 22.9978V22.9998Z" fill="currentColor"/>
</svg>
