<svg width="24" height="24" viewBox="0 0 24 24" fill="none" xmlns="http://www.w3.org/2000/svg">
<path d="M12.0016 20.0008C10.4842 20.0008 8.9668 19.7047 7.52256 19.1084C4.65082 17.9283 2.32667 15.6078 1.1416 12.743C1.13742 12.7305 1.13324 12.7201 1.12697 12.7076C0.957676 12.251 0.957676 11.7485 1.12697 11.2919C1.13115 11.2794 1.13533 11.269 1.1416 11.2565C2.33921 8.36462 4.5923 6.10869 7.48912 4.90567C10.3859 3.70265 13.5796 3.69848 16.4785 4.89107C19.3502 6.07325 21.6744 8.39173 22.8594 11.2565C22.8636 11.2669 22.8678 11.2794 22.872 11.2898C23.0434 11.7464 23.0434 12.251 22.872 12.7076C22.8678 12.7201 22.8636 12.7305 22.8594 12.741C21.6639 15.6349 19.4088 17.8908 16.5119 19.0918C15.0572 19.6943 13.5294 19.9966 12.0016 19.9966V20.0008ZM3.09581 12.0008C4.07605 14.3318 5.97592 16.2187 8.31888 17.1819C10.7036 18.1639 13.3288 18.1598 15.7093 17.1715C18.0732 16.1895 19.9166 14.3568 20.9052 12.0029C19.925 9.67189 18.0251 7.78709 15.6822 6.82175C13.2974 5.83973 10.6723 5.8439 8.29171 6.83217C5.92785 7.81419 4.08441 9.64687 3.09581 12.0008Z" fill="currentColor"/>
<path d="M12 16.0218C9.77615 16.0218 7.96824 14.2183 7.96824 11.9999C7.96824 9.7815 9.77615 7.97801 12 7.97801C14.2238 7.97801 16.0317 9.7815 16.0317 11.9999C16.0317 14.2183 14.2238 16.0218 12 16.0218ZM12 10.063C10.9299 10.063 10.0583 10.9324 10.0583 11.9999C10.0583 13.0674 10.9299 13.9368 12 13.9368C13.0701 13.9368 13.9416 13.0674 13.9416 11.9999C13.9416 10.9324 13.0701 10.063 12 10.063Z" fill="currentColor"/>
</svg>
